<svg xmlns="http://www.w3.org/2000/svg" width="358.649" height="39.901" viewBox="0 0 358.649 39.901">
  <g id="shopify_and_plus_logos" data-name="shopify and plus logos" transform="translate(-319 -696.391)">
    <path id="Enterprise_Ecommerce_Platform___Scalable_Software_Solutions-20" data-name="Enterprise Ecommerce Platform _ Scalable Software &amp; Solutions-20" d="M151.229,15.131a7.583,7.583,0,0,0-5.94,2.506l.278-1.449a.685.685,0,0,0-.683-.846,1.088,1.088,0,0,0-1.009.846l-4.27,22.167a.686.686,0,0,0,.683.846,1.091,1.091,0,0,0,1.01-.846l1.584-8.233c.584,1.054,1.938,2.5,4.979,2.5a8.415,8.415,0,0,0,5.929-2.175,11.762,11.762,0,0,0,3.258-6.586c.555-2.881.311-5.091-.724-6.571-1-1.429-2.716-2.153-5.1-2.153ZM148.16,31.065c-3.614,0-5.046-2.492-4.137-7.207.917-4.76,3.205-7.174,6.8-7.174,3.933,0,5.391,2.347,4.46,7.174-.947,4.917-3.211,7.209-7.126,7.209Zm39.913-8.144c-2.146-.8-4.173-1.547-3.787-3.547.194-1,1.009-2.692,4.294-2.692a4.608,4.608,0,0,1,4.022,1.763.588.588,0,0,0,.5.234,1,1,0,0,0,.926-.777.7.7,0,0,0-.1-.543l-.012-.02c-1.026-1.466-2.719-2.209-5.033-2.209-3.373,0-5.782,1.626-6.288,4.244-.6,3.133,2.172,4.184,4.62,5.106,2.115.8,4.114,1.557,3.744,3.473-.523,2.707-3.359,3.112-5.006,3.112-2.269,0-3.67-.617-4.685-2.064l-.011-.014a.611.611,0,0,0-.5-.234,1,1,0,0,0-.926.777.7.7,0,0,0,.1.543c.677,1.266,2.707,2.545,5.722,2.545,3.817,0,6.434-1.744,7-4.665.6-3.113-2.152-4.133-4.579-5.033Zm-5.119-12.166h-1.786l.345-1.787a.686.686,0,0,0-.684-.846,1.089,1.089,0,0,0-1.009.846l-.345,1.786H177.69a1.09,1.09,0,0,0-1.009.846.685.685,0,0,0,.683.846h1.786l-.343,1.787a.684.684,0,0,0,.683.846,1.089,1.089,0,0,0,1.009-.846l.343-1.786h1.787a1.094,1.094,0,0,0,1.009-.846.684.684,0,0,0-.683-.846ZM41.126,27.957A8.745,8.745,0,0,0,45.049,29c1.354,0,2.084-.729,2.084-1.63,0-.869-.521-1.458-1.979-2.292-1.8-1.041-3.159-2.5-3.159-4.408,0-3.368,2.882-5.763,7.081-5.763a8.438,8.438,0,0,1,4.027.8l-1.11,3.4a7.174,7.174,0,0,0-2.984-.66c-1.353,0-2.223.626-2.223,1.6,0,.763.624,1.32,1.84,1.979C50.5,23.1,52.062,24.556,52.062,26.6c0,3.817-3.09,5.971-7.4,5.937a9.456,9.456,0,0,1-4.72-1.181l1.18-3.4Zm11.908,4.49L57.685,8.139h4.791l-1.84,9.422L60.7,17.5a6.529,6.529,0,0,1,5.068-2.582c2.5,0,3.922,1.609,3.922,4.316a18.979,18.979,0,0,1-.346,3.222l-1.875,9.991h-4.79l1.8-9.69a11.581,11.581,0,0,0,.209-2.173c0-1.041-.415-1.8-1.492-1.8-1.529,0-3.161,2.041-3.785,5.2l-1.6,8.466H53.034ZM87.021,21.569c0,5.937-3.821,11.006-9.478,11.006-4.307,0-6.6-2.987-6.6-6.7,0-5.8,3.819-11,9.581-11,4.479,0,6.491,3.264,6.491,6.7Zm-11.179,4.2c0,1.735.7,3.122,2.327,3.122,2.533,0,3.957-4.513,3.957-7.463,0-1.423-.557-2.881-2.256-2.881-2.605,0-4.028,4.476-4.028,7.221ZM85.875,39.2,89.208,21.68c.383-1.979.763-4.539.972-6.341h4.236l-.278,2.7h.069a6.541,6.541,0,0,1,5.068-3.008c3.505,0,4.93,2.8,4.93,6.029,0,5.832-3.679,11.577-9.3,11.577A4.834,4.834,0,0,1,92.089,32h-.1l-1.32,7.2h-4.79Zm6.84-10.93a2.976,2.976,0,0,0,1.979.7c2.673,0,4.514-4.41,4.514-7.5,0-1.283-.452-2.638-1.91-2.638-1.666,0-3.228,1.979-3.784,4.965Zm11.629,4.177,3.23-17.1H112.4l-3.264,17.1h-4.791Zm6.215-18.906A2.368,2.368,0,0,1,108.3,10.96a2.814,2.814,0,0,1,2.742-2.87,2.39,2.39,0,0,1,2.395,2.535,2.825,2.825,0,0,1-2.81,2.918l-.071,0ZM113.3,32.446l2.535-13.5h-2.221l.694-3.6h2.222l.138-.861a9.183,9.183,0,0,1,2.776-5.448,7.128,7.128,0,0,1,4.688-1.612,6.738,6.738,0,0,1,2.6.409l-.937,3.745a4.7,4.7,0,0,0-1.527-.246c-1.6,0-2.569,1.52-2.845,3.153l-.175.86h3.333l-.661,3.6h-3.3l-2.535,13.5H113.3Zm17.22-17.1L131.283,23q.252,2.018.417,4.045h.069c.383-.9.729-2.241,1.424-4.08l2.916-7.621h5l-5.868,12.523c-2.083,4.305-4.1,7.441-6.283,9.49a10.883,10.883,0,0,1-4.686,2.592l-1.32-4.067a10.425,10.425,0,0,0,2.707-1.357,8.205,8.205,0,0,0,2.6-2.882.915.915,0,0,0,.1-.754l-2.882-15.544,5.036,0Zm48.515,1.607a1.093,1.093,0,0,0-1.009.846l-1.618,8.4c-.877,4.28-3.507,4.865-5.971,4.865-4.439,0-4.551-2.529-4.076-5l1.9-9.874a.687.687,0,0,0-.684-.847,1.091,1.091,0,0,0-1.009.846l-1.9,9.876a6.241,6.241,0,0,0,.42,4.54c.834,1.337,2.533,2.013,5.048,2.013a7.965,7.965,0,0,0,5.825-2.013,8.386,8.386,0,0,0,2.169-4.54l1.59-8.266a.688.688,0,0,0-.686-.846ZM163.743,8.168a1.093,1.093,0,0,0-1.01.846L158.39,31.562a.687.687,0,0,0,.684.846,1.091,1.091,0,0,0,1.009-.846l4.342-22.548a.686.686,0,0,0-.683-.846ZM23.554,4.6l-1.169.363a8.152,8.152,0,0,0-.56-1.375A3.945,3.945,0,0,0,18.318,1.17h-.006c-.1,0-.2.009-.3.018q-.064-.079-.134-.152A3.078,3.078,0,0,0,15.436.049C13.541.1,11.656,1.471,10.127,3.9A15.257,15.257,0,0,0,8,9.418L4.273,10.572c-1.1.345-1.132.38-1.277,1.415C2.889,12.768.017,34.975.017,34.975L23.842,39.1V4.552a1.444,1.444,0,0,0-.288.049Zm-5.5,1.7L14.033,7.553a9.529,9.529,0,0,1,2.03-3.939,4.031,4.031,0,0,1,1.363-.994,9,9,0,0,1,.626,3.687Zm-2.581-5a1.938,1.938,0,0,1,1.138.3,5.494,5.494,0,0,0-1.469,1.144,11.02,11.02,0,0,0-2.492,5.226L9.348,9c.651-3.041,3.2-7.606,6.123-7.69ZM11.788,18.641c.128,2.027,5.46,2.469,5.76,7.217.235,3.736-1.981,6.291-5.176,6.492A7.756,7.756,0,0,1,6.429,30.33l.812-3.456s2.123,1.6,3.824,1.5a1.5,1.5,0,0,0,1.467-1.613c-.166-2.644-4.507-2.489-4.783-6.832-.231-3.656,2.17-7.361,7.469-7.695a6.542,6.542,0,0,1,3.087.391l-1.212,4.533a6.889,6.889,0,0,0-2.953-.515c-2.35.151-2.376,1.632-2.352,2ZM19.311,5.918a10.393,10.393,0,0,0-.575-3.445c1.437.272,2.144,1.9,2.442,2.867l-1.867.578ZM24.631,39l9.884-2.456S30.258,7.773,30.232,7.574a.38.38,0,0,0-.343-.32c-.141-.011-2.925-.054-2.925-.054s-1.7-1.646-2.333-2.27Z" transform="translate(318.983 696.344)"/>
    <g id="shopify-ar21" transform="translate(539.543 700.16)">
      <g id="s" transform="translate(-9 -16)">
        <path id="Path_4053" data-name="Path 4053" d="M39.444,19.765a.38.38,0,0,0-.34-.318c-.136-.022-3.119-.228-3.119-.228L33.71,16.944c-.2-.228-.659-.161-.83-.113-.022,0-.454.136-1.16.365-.687-1.984-1.9-3.806-4.04-3.806H27.5a2.65,2.65,0,0,0-2-1.16c-4.982.022-7.357,6.236-8.107,9.411L13.909,22.71c-1.068.34-1.108.365-1.25,1.383L9.724,46.733l22,4.119,11.926-2.571c0-.022-4.187-28.3-4.209-28.513ZM30.5,17.579c-.554.183-1.2.365-1.865.571v-.41a9.033,9.033,0,0,0-.454-3.017c1.115.172,1.865,1.424,2.319,2.856Zm-3.662-2.593a9.235,9.235,0,0,1,.5,3.336v.2l-3.847,1.2c.753-2.811,2.141-4.2,3.347-4.724ZM25.36,13.6a1.178,1.178,0,0,1,.637.2c-1.605.748-3.3,2.634-4.03,6.412l-3.043.932c.859-2.867,2.861-7.555,6.433-7.555Z" fill="#95bf47"/>
        <path id="Path_4054" data-name="Path 4054" d="M37.348,19.081c-.136-.022-3.119-.228-3.119-.228l-2.275-2.275a.445.445,0,0,0-.318-.136L29.976,50.483,41.9,47.911,37.69,19.42a.411.411,0,0,0-.34-.34Z" transform="translate(1.756 0.365)" fill="#5e8e3e"/>
        <path id="Path_4055" data-name="Path 4055" d="M27.265,24.99l-1.48,4.369a6.849,6.849,0,0,0-2.867-.685c-2.322,0-2.434,1.456-2.434,1.821,0,1.989,5.211,2.754,5.211,7.442,0,3.686-2.344,6.053-5.485,6.053A7.645,7.645,0,0,1,14.5,41.646l1-3.347s1.978,1.706,3.664,1.706a1.489,1.489,0,0,0,1.547-1.5c0-2.619-4.278-2.732-4.278-7.009,0-3.6,2.593-7.1,7.8-7.1a6.688,6.688,0,0,1,3.028.6Z" transform="translate(0.415 1.055)" fill="#fff"/>
      </g>
      <path id="Path_4056" data-name="Path 4056" d="M52.944,36.1c-1.127-.65-1.71-1.212-1.71-1.981,0-.975.792-1.605,2.077-1.605a6.935,6.935,0,0,1,2.771.652l1.039-3.4s-.953-.793-3.745-.793c-3.895,0-6.6,2.4-6.6,5.77,0,1.907,1.255,3.374,2.942,4.421,1.363.851,1.842,1.415,1.842,2.3s-.671,1.63-1.947,1.63a8.252,8.252,0,0,1-3.656-1.046l-1.1,3.4a7.992,7.992,0,0,0,4.393,1.186c4,0,6.88-2.117,6.88-5.944.022-2.071-1.429-3.514-3.167-4.608Zm15.968-7.143a5.864,5.864,0,0,0-4.718,2.548l-.066-.023,1.71-9.622H61.383l-4.328,24.5h4.458L63,37.988c.584-3.164,2.106-5.12,3.526-5.12.993,0,1.385.721,1.385,1.769a11.723,11.723,0,0,1-.194,2.117l-1.687,9.588h4.458l1.753-9.906a19.139,19.139,0,0,0,.324-3.111C72.548,30.625,71.228,29,68.914,29Zm13.717,0c-5.366,0-8.915,5.213-8.915,10.99,0,3.724,2.142,6.7,6.146,6.7,5.264,0,8.829-5.074,8.829-10.99,0-3.444-1.881-6.7-6.053-6.7ZM80.442,42.991c-1.516,0-2.163-1.393-2.163-3.111,0-2.746,1.316-7.236,3.745-7.236,1.579,0,2.106,1.466,2.106,2.887-.006,2.949-1.324,7.461-3.685,7.461Zm19.647-14.031c-3.023,0-4.718,2.83-4.718,2.83H95.3l.263-2.548H91.62L90.713,35.6,87.618,53.142h4.438l1.235-7.1h.086a4.868,4.868,0,0,0,2.62.628c5.236,0,8.655-5.77,8.655-11.6.022-3.212-1.316-6.1-4.566-6.1Zm-4.263,14.1a2.66,2.66,0,0,1-1.842-.7l.737-4.492c.527-2.98,1.969-4.981,3.526-4.981,1.363,0,1.773,1.35,1.773,2.631.007,3.122-1.7,7.543-4.189,7.543ZM111.04,22.071a2.447,2.447,0,0,0-1.818.808,2.764,2.764,0,0,0-.72,1.963,2.155,2.155,0,0,0,2.106,2.4h.066a2.425,2.425,0,0,0,1.867-.776,2.818,2.818,0,0,0,.751-1.995,2.2,2.2,0,0,0-2.231-2.4Zm-6.227,24.247h4.458l3.028-16.98h-4.474m15.833-.023h-3.113l.153-.793c.263-1.63,1.169-3.1,2.631-3.1a4.538,4.538,0,0,1,1.429.232l.861-3.75a5.607,5.607,0,0,0-2.424-.418,6.373,6.373,0,0,0-4.371,1.605,9.394,9.394,0,0,0-2.591,5.422l-.144.793h-2.077l-.651,3.607h2.077l-2.369,13.4h4.474l2.369-13.4h3.075l.6-3.607Zm10.735.023L130.346,41.02h-.066l-1.1-11.682h-4.7l2.684,15.59a1.173,1.173,0,0,1-.086.793,8.083,8.083,0,0,1-2.424,2.887,9.86,9.86,0,0,1-2.51,1.35l1.235,4.071a10.047,10.047,0,0,0,4.363-2.614c2.034-2.049,3.915-5.213,5.844-9.519l5.452-12.566h-4.645Z" transform="translate(-0.931 -17.975)"/>
    </g>
  </g>
</svg>
